<?xml version="1.0" encoding="iso-8859-1"?>
<!-- Uploaded to: SVG Repo, www.svgrepo.com, Generator: SVG Repo Mixer Tools -->
<svg fill="#000000" version="1.1" id="Capa_1" xmlns="http://www.w3.org/2000/svg" xmlns:xlink="http://www.w3.org/1999/xlink" 
	 viewBox="0 0 490.1 490.1" xml:space="preserve">
<g>
	<g>
		<rect x="206.5" y="403.5" width="77" height="77"/>
		<path d="M14,442c0,5.1,4.3,9.3,9.3,9.3h164.5v-18.7H23.3C18.3,432.6,14,436.9,14,442z"/>
		<path d="M466.7,432.6H302.2v18.7h164.5c5.1,0,9.3-4.3,9.3-9.3C476,436.9,471.7,432.6,466.7,432.6z"/>
		<path d="M94.1,329.6c19.8,0,79.6,0,141.6,0v55.2h18.7v-55.2c60.5,0,119.4,0,141.6,0c52.1,0,94.1-42,94.1-94.1
			c0-39.6-24.4-73.3-58.9-87c1.6-24-6.8-48.6-25.2-66.9c-20.9-20.9-50-28.9-77-23.9C304.9,28.2,268,9.6,226.8,9.6
			c-73.1,0-132.2,59.1-132.2,132.2C42,141.4,0,183.7,0,235.5C0,287.6,42,329.6,94.1,329.6z"/>
	</g>
</g>
</svg>